g Shape(Clone)
v 0.001592548 -0.9999987 0
v -0.7808377 -0.624734 0
v -8.51495E-09 1.106943E-07 0
v -0.7808377 -0.624734 0
v -0.9752811 0.2209681 0
v -8.51495E-09 1.106943E-07 0
v -0.9752811 0.2209681 0
v -0.4353181 0.9002767 0
v -8.51495E-09 1.106943E-07 0
v -0.4353181 0.9002767 0
v 0.4324482 0.9016588 0
v -8.51495E-09 1.106943E-07 0
v 0.4324482 0.9016588 0
v 0.9745722 0.2240736 0
v -8.51495E-09 1.106943E-07 0
v 0.9745722 0.2240736 0
v 0.7828237 -0.6222436 0
v -8.51495E-09 1.106943E-07 0
v 0.001592548 -0.9999987 0
v 0.7828237 -0.6222436 0
v -8.51495E-09 1.106943E-07 0

vn 0 0 -1
vn 0 0 -1
vn 0 0 -1
vn 0 0 -1
vn 0 0 -1
vn 0 0 -1
vn 0 0 -1
vn 0 0 -1
vn 0 0 -1
vn 0 0 -1
vn 0 0 -1
vn 0 0 -1
vn 0 0 -1
vn 0 0 -1
vn 0 0 -1
vn 0 0 -1
vn 0 0 -1
vn 0 0 -1
vn 0 0 -1
vn 0 0 -1
vn 0 0 -1

vt 0.001592548 -0.9999987
vt -0.7808377 -0.624734
vt -8.51495E-09 1.106943E-07
vt -0.7808377 -0.624734
vt -0.9752811 0.2209681
vt -8.51495E-09 1.106943E-07
vt -0.9752811 0.2209681
vt -0.4353181 0.9002767
vt -8.51495E-09 1.106943E-07
vt -0.4353181 0.9002767
vt 0.4324482 0.9016588
vt -8.51495E-09 1.106943E-07
vt 0.4324482 0.9016588
vt 0.9745722 0.2240736
vt -8.51495E-09 1.106943E-07
vt 0.9745722 0.2240736
vt 0.7828237 -0.6222436
vt -8.51495E-09 1.106943E-07
vt 0.001592548 -0.9999987
vt 0.7828237 -0.6222436
vt -8.51495E-09 1.106943E-07

usemtl ShapeMat
usemap ShapeMat
f 1/1/1 2/2/2 3/3/3
f 4/4/4 5/5/5 6/6/6
f 7/7/7 8/8/8 9/9/9
f 10/10/10 11/11/11 12/12/12
f 13/13/13 14/14/14 15/15/15
f 16/16/16 17/17/17 18/18/18
f 21/21/21 20/20/20 19/19/19
