g Shape(Clone)
v 0.001592548 -0.9999987 0
v -0.5864961 -0.809952 0
v 2.384186E-08 -3.755093E-07 0
v -0.5864961 -0.809952 0
v -0.9505631 -0.3105314 0
v 2.384186E-08 -3.755093E-07 0
v -0.9505631 -0.3105314 0
v -0.9515474 0.3075021 0
v 2.384186E-08 -3.755093E-07 0
v -0.9515474 0.3075021 0
v -0.5890726 0.8080801 0
v 2.384186E-08 -3.755093E-07 0
v -0.5890726 0.8080801 0
v -0.001591984 0.9999987 0
v 2.384186E-08 -3.755093E-07 0
v -0.001591984 0.9999987 0
v 0.5864968 0.8099515 0
v 2.384186E-08 -3.755093E-07 0
v 0.5864968 0.8099515 0
v 0.9505635 0.3105302 0
v 2.384186E-08 -3.755093E-07 0
v 0.9505635 0.3105302 0
v 0.951547 -0.3075033 0
v 2.384186E-08 -3.755093E-07 0
v 0.951547 -0.3075033 0
v 0.5890716 -0.8080809 0
v 2.384186E-08 -3.755093E-07 0
v 0.001592548 -0.9999987 0
v 0.5890716 -0.8080809 0
v 2.384186E-08 -3.755093E-07 0

vn 0 0 -1
vn 0 0 -1
vn 0 0 -1
vn 0 0 -1
vn 0 0 -1
vn 0 0 -1
vn 0 0 -1
vn 0 0 -1
vn 0 0 -1
vn 0 0 -1
vn 0 0 -1
vn 0 0 -1
vn 0 0 -1
vn 0 0 -1
vn 0 0 -1
vn 0 0 -1
vn 0 0 -1
vn 0 0 -1
vn 0 0 -1
vn 0 0 -1
vn 0 0 -1
vn 0 0 -1
vn 0 0 -1
vn 0 0 -1
vn 0 0 -1
vn 0 0 -1
vn 0 0 -1
vn 0 0 -1
vn 0 0 -1
vn 0 0 -1

vt 0.001592548 -0.9999987
vt -0.5864961 -0.809952
vt 2.384186E-08 -3.755093E-07
vt -0.5864961 -0.809952
vt -0.9505631 -0.3105314
vt 2.384186E-08 -3.755093E-07
vt -0.9505631 -0.3105314
vt -0.9515474 0.3075021
vt 2.384186E-08 -3.755093E-07
vt -0.9515474 0.3075021
vt -0.5890726 0.8080801
vt 2.384186E-08 -3.755093E-07
vt -0.5890726 0.8080801
vt -0.001591984 0.9999987
vt 2.384186E-08 -3.755093E-07
vt -0.001591984 0.9999987
vt 0.5864968 0.8099515
vt 2.384186E-08 -3.755093E-07
vt 0.5864968 0.8099515
vt 0.9505635 0.3105302
vt 2.384186E-08 -3.755093E-07
vt 0.9505635 0.3105302
vt 0.951547 -0.3075033
vt 2.384186E-08 -3.755093E-07
vt 0.951547 -0.3075033
vt 0.5890716 -0.8080809
vt 2.384186E-08 -3.755093E-07
vt 0.001592548 -0.9999987
vt 0.5890716 -0.8080809
vt 2.384186E-08 -3.755093E-07

usemtl ShapeMat
usemap ShapeMat
f 1/1/1 2/2/2 3/3/3
f 4/4/4 5/5/5 6/6/6
f 7/7/7 8/8/8 9/9/9
f 10/10/10 11/11/11 12/12/12
f 13/13/13 14/14/14 15/15/15
f 16/16/16 17/17/17 18/18/18
f 19/19/19 20/20/20 21/21/21
f 22/22/22 23/23/23 24/24/24
f 25/25/25 26/26/26 27/27/27
f 30/30/30 29/29/29 28/28/28
